<?xml version="1.0" encoding="utf-8"?>
<svg xmlns="http://www.w3.org/2000/svg" viewBox="290 300 450 350" preserveAspectRatio="xMidYMid meet" role="img" aria-label="MavenCode">
  <g fill="#37c969">
    <path d="M428.5 563.6 c-1.1 -0.8 -1.6 -2.1 -1.3 -3.2 0.7 -2.6 44.5 -69.6 46.5 -71.1 2.9 -2.2 3.9 -1.5 8.9 6.5 2.7 4.2 8.9 13.7 13.7 21.1 4.9 7.4 9.1 14 9.4 14.8 0.6 1.7 -16.2 28.8 -19.5 31.4 -2.3 1.8 -4.4 1.9 -29.1 1.9 -20.9 0 -27.1 -0.3 -28.6 -1.4z"/>
  </g>
  <g fill="#f7f2e2">
    <path d="M316.2 622.7 l-2.2 -2.3 0 -147.7 0 -147.6 2.2 -1.5 c2 -1.4 9.7 -1.6 63.9 -1.6 l61.6 0 3.2 2.2 c2.1 1.5 11 14.5 25.5 37.3 12.2 19.3 26.4 41.3 31.4 49 5 7.7 12 18.5 15.5 24 3.5 5.5 12.5 19.5 19.9 31 7.4 11.6 22.4 34.7 33.3 51.5 30.4 46.8 29.4 44.9 25.5 47 -1.2 0.7 -11.2 0.9 -28.2 0.8 l-26.3 -0.3 -8 -12.3 c-4.4 -6.7 -17.2 -26.5 -28.5 -43.9 -11.3 -17.4 -31.5 -48.7 -45 -69.5 -13.5 -20.7 -28.4 -43.8 -33.2 -51.3 l-8.7 -13.5 -27.1 0 -27 0 -0.2 123.6 -0.3 123.6 -2.4 1.9 c-2.1 1.7 -4.1 1.9 -22.5 1.9 -19.9 0 -20.3 0 -22.4 -2.3z"/>
    <path d="M663.5 622.5 l-2.5 -2.4 0 -123.1 0 -123 -26.4 0 c-30.5 0 -26.9 -1.2 -35.3 11.9 -35.9 55.8 -48.7 75.1 -49.7 74.8 -1.3 -0.4 -29.5 -43.7 -29.6 -45.4 0 -0.7 5.1 -8.8 11.3 -18.2 6.1 -9.4 16.1 -24.6 22.1 -33.8 25.6 -39.3 25.4 -39 28.7 -40.2 2.2 -0.8 22.4 -1.1 64 -1.1 59.6 0 60.9 0 62.9 2 2 2 2 3.3 2 149.3 l0 147.4 -2.3 2.1 c-2.2 2.1 -3.2 2.2 -22.6 2.2 -20.1 0 -20.2 0 -22.6 -2.5z"/>
    <path d="M400 487 c0 -5.9 -0.4 -5.6 17.7 -14.8 6.2 -3.1 11.3 -6.1 11.3 -6.5 0 -0.5 -6.5 -3.9 -14.5 -7.7 l-14.5 -6.9 0 -3.9 c0 -3.8 1.4 -6.2 3.6 -6.2 1.6 0 32.2 14.7 35.7 17.2 2.4 1.7 2.7 2.6 2.7 7.2 0 3.8 -0.5 5.7 -1.7 6.8 -2.1 1.8 -37.8 19.8 -39.3 19.8 -0.5 0 -1 -2.3 -1 -5z"/>
    <path d="M604.8 482.9 c-10 -5 -19.1 -9.8 -20 -10.6 -1.3 -1.1 -1.8 -3.1 -1.8 -6.4 0 -4.2 0.4 -5.1 3.3 -7.3 4.1 -3.1 34.1 -18.6 36.1 -18.6 1.7 0 2.7 9.7 1.1 11 -0.5 0.4 -7 3.8 -14.2 7.4 -7.3 3.6 -13.3 6.9 -13.3 7.4 0 0.4 6.4 3.9 14.3 7.7 l14.2 7 0.3 5.8 c0.2 3.1 -0.1 5.7 -0.7 5.7 -0.5 0 -9.2 -4.1 -19.3 -9.1z"/>
  </g>
</svg>
